<?xml version="1.0" encoding="UTF-8" standalone="no"?>
<svg width="25px" height="25px" viewBox="0 0 25 25" version="1.1" xmlns="http://www.w3.org/2000/svg" xmlns:xlink="http://www.w3.org/1999/xlink">
    <!-- Generator: Sketch 3.8.3 (29802) - http://www.bohemiancoding.com/sketch -->
    <title>Group 2</title>
    <desc>Created with Sketch.</desc>
    <defs></defs>
    <g id="Page-1" stroke="none" stroke-width="1" fill="none" fill-rule="evenodd">
        <g id="Artboard-1" transform="translate(-172.000000, -47.000000)">
            <g id="Group-2" transform="translate(173.000000, 48.000000)">
                <circle id="Oval-1" stroke="#484848" fill="#FFFFFF" cx="11.5" cy="11.5" r="11.5"></circle>
                <rect id="Rectangle-33" fill="#484848" x="7" y="5" width="9" height="12" rx="1"></rect>
                <path d="M7.45387734,18.9349214 C8.25504308,18.9349214 9.0054739,18.8100355 9.71910796,18.559706 C10.4199189,18.2965535 11.0203751,17.9586923 11.521034,17.5332995 C12.0088697,17.1079067 12.4470857,16.620071 12.8100355,16.0692347 C13.1601622,15.5061328 13.4355803,14.9302078 13.6106437,14.3297516 C13.7862646,13.7292955 13.8737962,13.1282818 13.8737962,12.5150025 L13.8737962,12.2273188 C14.3114546,11.9022808 14.6872276,11.5142423 15,11.0637608 C14.5617841,11.2388241 14.1363913,11.3637101 13.6981754,11.4016219 C14.1865687,11.1133806 14.5244298,10.7008109 14.6872276,10.1627978 C14.2490117,10.4253928 13.7734415,10.6132793 13.260517,10.7130765 C12.8100355,10.2375063 12.2591992,10 11.6085656,10 C10.9952864,10 10.4572732,10.2124176 10.0190573,10.6506336 C9.58139888,11.1011151 9.35615813,11.6268626 9.35615813,12.2524075 C9.35615813,12.4152053 9.38124683,12.5902686 9.41860112,12.765332 C8.49254942,12.7279777 7.6289407,12.4899138 6.81550938,12.0773441 C6.01490117,11.6519513 5.3263558,11.1011151 4.76325393,10.4131272 C4.56310188,10.7632539 4.4504815,11.1384693 4.4504815,11.5515966 C4.4504815,11.926812 4.55083629,12.2897618 4.72589965,12.6276229 C4.91378611,12.9532184 5.15129245,13.2158135 5.46406488,13.4287886 C5.10111505,13.4159655 4.76325393,13.3161683 4.43821591,13.1411049 L4.43821591,13.1661936 C4.43821591,13.7164724 4.61327927,14.1920426 4.9511404,14.6051698 C5.30126711,15.018297 5.72665991,15.2680689 6.2524075,15.3806893 C6.05225545,15.4308667 5.8521034,15.4559554 5.65195134,15.4559554 C5.52650786,15.4559554 5.38879878,15.4436898 5.22655854,15.4186011 C5.3765332,15.8690826 5.63912823,16.244298 6.02716675,16.5325393 C6.41520527,16.8324886 6.85342119,16.9824633 7.34125697,16.9824633 C6.51556006,17.6336543 5.58950836,17.9464268 4.53801318,17.9464268 C4.33786113,17.9464268 4.16279777,17.9464268 4,17.9213381 C5.03867207,18.5970603 6.20223011,18.9349214 7.45387734,18.9349214" id="Fill-178" fill="#FFFFFF"></path>
            </g>
        </g>
    </g>
</svg>