<?xml version="1.0" encoding="UTF-8" standalone="no"?>
<svg width="56px" height="87px" viewBox="0 0 56 87" version="1.1" xmlns="http://www.w3.org/2000/svg" xmlns:xlink="http://www.w3.org/1999/xlink">
    <!-- Generator: Sketch 3.8.3 (29802) - http://www.bohemiancoding.com/sketch -->
    <title>李</title>
    <desc>Created with Sketch.</desc>
    <defs>
        <linearGradient x1="50%" y1="0%" x2="50%" y2="100%" id="linearGradient-1">
            <stop stop-color="#FFD7AB" offset="0%"></stop>
            <stop stop-color="#FFC98D" offset="100%"></stop>
        </linearGradient>
    </defs>
    <g id="Page-1" stroke="none" stroke-width="1" fill="none" fill-rule="evenodd">
        <g id="Main-Screen" transform="translate(-51.000000, -48.000000)" fill="url(#linearGradient-1)">
            <path d="M90.2618836,76.2624369 C92.2357303,75.2436773 94.2413832,74.4159476 96.2789023,73.7792228 C98.5711114,73.0788256 100.162899,72.7286323 101.054314,72.7286323 C102.073074,72.7286323 103.250997,73.429019 104.588119,74.8298134 C105.988913,76.1669353 106.6893,77.265269 106.6893,78.1248474 C106.6893,78.9844258 106.370942,79.7644019 105.734217,80.4647991 C105.415855,80.7831615 104.874647,81.2766158 104.110577,81.9451767 C103.346508,82.6137377 102.375517,83.3459602 101.197576,84.1418661 C100.019636,84.937772 98.6984515,85.7973375 97.2339846,86.7205884 C95.7695177,87.6438392 94.1777298,88.4874868 92.458573,89.2515565 C95.6421967,91.2890757 97.2339846,93.5494146 97.2339846,96.0326411 C97.2339846,97.0514006 96.915627,97.8791304 96.2789023,98.5158551 C93.9866933,100.808064 92.8406059,102.208838 92.8406059,102.718217 C92.8406059,103.227597 92.8724417,103.57779 92.9361142,103.768808 C93.8912013,103.57779 94.7826025,103.418612 95.6103447,103.291267 C96.4380868,103.163922 97.2498987,103.148004 98.0458046,103.243513 C98.8417105,103.339021 99.6535224,103.57779 100.481265,103.959824 C101.309007,104.341859 102.168572,104.978574 103.059987,105.869989 C104.906489,107.589146 105.829726,109.149098 105.829726,110.549892 C105.829726,111.950687 104.842817,113.510639 102.86897,115.229796 C100.958796,116.88528 98.730293,117.744846 96.1833941,117.808518 C95.5466693,124.112093 93.9230456,128.569099 91.3124742,131.179671 C88.7655753,133.72657 86.282386,135 83.8628321,135 C82.7804,135 81.7139021,134.745314 80.6633063,134.235934 C79.6127104,133.726554 77.9731688,132.612303 75.7446323,130.893146 C73.4524232,129.110317 71.5104419,127.327514 69.9186301,125.544685 C69.0908879,124.65327 68.4382549,123.873294 67.9607113,123.204733 C67.4831678,122.536172 67.1170565,121.915375 66.8623666,121.342323 C66.6076767,120.76927 66.4484979,120.212145 66.3848255,119.670929 C66.321153,119.129713 66.2893172,118.540751 66.2893172,117.904026 C66.2893172,115.548145 66.9897039,113.765342 68.3904984,112.555565 C69.8549652,111.282116 74.0891212,109.499313 81.0930933,107.207104 C81.1567658,103.004721 82.8758968,100.426025 86.2505379,99.4709374 C86.8235901,99.27992 87.3329623,98.9933982 87.7786696,98.6113633 C88.2243769,98.2293285 88.6223239,97.7995457 88.9725225,97.3220022 C89.3227211,96.8444586 89.5774072,96.3828401 89.7365884,95.9371328 C89.8957695,95.4914255 89.9753589,95.1730679 89.9753589,94.9820505 C89.9753589,94.5363432 89.7843444,94.3134929 89.4023095,94.3134929 C89.0202747,94.3134929 87.8741874,94.9183723 85.9640132,96.1281493 C84.053839,97.3379263 81.4433067,98.6750282 78.1323381,100.139495 C74.8850419,101.603962 72.7202103,102.336184 71.6377783,102.336184 C70.5553462,102.336184 70.0141383,101.890484 70.0141383,100.999069 C70.0141383,100.043982 70.3006601,98.8342232 70.8737124,97.3697563 C71.5104371,95.9052894 72.7520317,94.7273663 74.5985335,93.8359517 C76.5087077,92.9445371 78.6735393,91.6074352 81.0930933,89.8246059 C81.2204383,89.1242087 81.2841098,88.3442326 81.2841098,87.4846542 C81.2841098,86.6250758 81.252274,85.7177567 81.1886015,84.7626696 C75.330734,88.9013804 70.6190416,92.2282172 67.0533831,94.7432799 C63.4877246,97.2583426 61.0363711,99.0252273 59.6992492,100.043987 C57.1523502,102.017834 55.5605623,103.004742 54.9238375,103.004742 C54.3507853,103.004742 54.0642634,102.463534 54.0642634,101.381102 C54.0642634,100.80805 54.0960992,100.155417 54.1597717,99.4231833 C54.2234442,98.6909499 54.3189514,97.9746453 54.4462964,97.2742481 C54.5736413,96.5738509 54.7009844,95.9530536 54.8283293,95.4118375 C54.9556743,94.8706215 55.0830173,94.5045103 55.2103622,94.3134929 C55.4650521,93.9951305 56.1336031,93.6767729 57.2160351,93.3584105 C58.2347947,93.1037206 59.6355681,92.4033339 61.4183974,91.2572294 C63.2012266,90.0474524 66.4484741,87.3732486 71.1602371,83.2345379 C75.7446552,79.0958271 78.3551874,76.6126379 78.9919122,75.7848957 C79.5649644,75.020826 79.8514863,74.4159466 79.8514863,73.9702393 C79.8514863,73.524532 79.5649644,73.3653532 78.9919122,73.4926981 C77.6547902,74.3204403 76.0311665,75.4028561 74.1209923,76.739978 C72.2108181,78.0771 70.0459865,79.7325595 67.6264325,81.7064061 C66.1619656,82.8525107 64.6656849,83.4255543 63.1375456,83.4255543 C60.4633017,83.4255543 57.7572621,81.9611094 55.0193458,79.0321756 C52.3451019,76.1032419 51.008,74.2249321 51.008,73.3971899 C51.008,73.0788275 51.1990146,72.9196487 51.5810494,72.9196487 C51.9630842,72.9196487 52.6475531,73.2220885 53.6344764,73.8269769 C54.6213997,74.4318654 55.8789122,74.7343052 57.4070516,74.7343052 C62.0551422,74.7343052 70.3642753,70.8821783 82.3347003,63.177809 C82.5893902,60.8856 82.7167333,59.1027974 82.7167333,57.829348 C82.7167333,56.5558985 82.4302114,55.56899 81.8571592,54.8685928 C81.3477794,54.1045231 80.3290351,53.4041364 78.8008957,52.7674116 C77.3364288,52.003342 76.6042064,51.2392837 76.6042064,50.4752141 C76.6042064,49.6474719 77.3364288,49.0425925 78.8008957,48.6605576 C80.1380177,48.2148503 81.5069553,47.992 82.9077497,47.992 C84.2448717,47.992 86.0913457,48.787894 88.4472272,50.3797058 C90.9304537,52.0351901 92.1720483,53.4677993 92.1720483,54.6775763 C92.1720483,55.7600083 91.9173622,57.128946 91.4079824,58.7844303 C92.554087,58.338723 93.9230246,58.1158727 95.5148364,58.1158727 C96.9793033,58.1158727 98.7302701,58.5934091 100.767789,59.5484962 C102.805308,60.5035833 103.824053,61.7133421 103.824053,63.177809 C103.824053,63.9418787 103.553449,64.5308402 103.012233,64.9447113 C102.471017,65.3585824 101.500026,65.5655148 100.099232,65.5655148 C97.3613153,65.5655148 94.4642612,66.1385585 91.4079824,67.284663 C91.6626723,68.0487327 91.8696048,68.7809552 92.0287859,69.4813524 C92.1879671,70.1817496 92.2357208,70.8821363 92.1720483,71.5825335 C92.1083758,72.2829307 91.9332791,72.9992353 91.646753,73.7314687 C91.3602269,74.4637022 90.8986084,75.3073498 90.2618836,76.2624369 L90.2618836,76.2624369 Z M86.6325708,86.7683425 C89.6888495,84.7308233 91.9014348,83.3618857 93.270393,82.6614885 C94.6393512,81.9610913 95.32382,81.5153906 95.32382,81.3243732 C95.32382,81.0696833 94.7666942,80.9423403 93.6524259,80.9423403 C92.5381576,80.9423403 90.3574081,81.1970264 87.110112,81.7064061 C86.982767,82.4068034 86.8872597,83.1867795 86.8235873,84.0463578 C86.7599148,84.9059362 86.6962433,85.8132554 86.6325708,86.7683425 L86.6325708,86.7683425 Z M95.8013611,112.364549 C97.7115353,110.963754 98.6666081,110.040517 98.6666081,109.59481 C98.6666081,109.212775 98.3482505,109.021761 97.7115258,109.021761 C97.0748011,109.021761 96.2152356,109.117268 95.1328035,109.308285 C95.4511659,110.136028 95.6740162,111.154772 95.8013611,112.364549 L95.8013611,112.364549 Z M90.0708672,117.904026 C89.1794525,117.840354 88.2243798,117.776682 87.2056202,117.71301 C86.1868606,117.649337 85.072609,117.55383 83.8628321,117.426485 C81.4432781,117.108123 80.2335192,116.726094 80.2335192,116.280386 C80.2335192,116.089369 80.3608622,115.993862 80.6155521,115.993862 C80.870242,115.930189 81.8889863,115.898353 83.6718156,115.898353 C85.4546448,115.898353 87.555805,115.579996 89.9753589,114.943271 C89.9116865,113.478804 89.5296574,112.109867 88.8292602,110.836417 C83.16241,113.319644 78.6417322,114.561238 75.2670911,114.561238 C74.3756765,114.561238 73.5479467,114.465731 72.7838771,114.274714 C71.4467551,114.593076 70.3643393,115.197955 69.5365971,116.08937 C68.708855,116.980785 68.2949901,117.84035 68.2949901,118.668092 C68.2949901,120.832956 69.8549423,122.902281 72.9748935,124.876127 C76.0948447,126.977319 79.2465849,128.027899 82.4302086,128.027899 C84.6587451,128.027899 86.3460404,127.200169 87.4921449,125.544685 C88.6382494,123.889201 89.4978149,121.34234 90.0708672,117.904026 L90.0708672,117.904026 Z" id="李"></path>
        </g>
    </g>
</svg>