<?xml version="1.0" standalone="no"?>
<!DOCTYPE svg PUBLIC "-//W3C//DTD SVG 20010904//EN"
 "http://www.w3.org/TR/2001/REC-SVG-20010904/DTD/svg10.dtd">
<svg version="1.0" xmlns="http://www.w3.org/2000/svg"
 width="389.000000pt" height="658.000000pt" viewBox="0 0 389.000000 658.000000"
 preserveAspectRatio="xMidYMid meet">
<metadata>
Created by potrace 1.15, written by Peter Selinger 2001-2017
</metadata>
<g transform="translate(0.000000,658.000000) scale(0.100000,-0.100000)"
fill="#000000" stroke="none">
<path d="M2007 6573 c-5 -4 -29 -10 -49 -12 -5 -1 -8 -8 -8 -16 0 -9 -11 -20
-23 -24 -13 -5 -30 -24 -38 -43 -7 -18 -21 -42 -31 -52 -10 -11 -18 -26 -18
-34 0 -7 -11 -28 -25 -46 -14 -18 -25 -38 -25 -44 0 -7 -9 -21 -20 -32 -15
-15 -18 -25 -12 -37 12 -21 3 -53 -15 -53 -8 0 -12 -4 -9 -8 3 -5 -2 -21 -9
-36 -8 -16 -12 -39 -9 -52 5 -18 0 -31 -20 -49 -17 -16 -25 -32 -22 -47 2 -13
-3 -31 -11 -40 -9 -10 -13 -26 -10 -37 3 -12 -1 -22 -10 -25 -9 -4 -12 -13 -8
-25 3 -11 1 -22 -5 -26 -5 -3 -10 -16 -10 -29 0 -12 -3 -25 -6 -29 -4 -3 -8
-25 -9 -48 -2 -23 -12 -58 -22 -76 -17 -33 -17 -35 0 -44 9 -6 17 -15 17 -20
0 -6 -4 -8 -9 -5 -15 10 -28 -17 -30 -63 0 -24 -5 -49 -10 -55 -5 -6 -12 -31
-15 -55 -3 -24 -7 -46 -10 -48 -3 -3 -1 -15 4 -28 6 -15 4 -27 -3 -34 -14 -14
-18 -83 -5 -92 5 -3 -1 -17 -12 -32 -16 -21 -22 -45 -25 -108 -3 -45 -9 -87
-14 -93 -5 -6 -12 -32 -16 -59 -5 -33 -12 -47 -21 -45 -13 3 -36 -26 -49 -62
-4 -9 -16 -20 -28 -25 -12 -6 -27 -20 -33 -33 -6 -13 -15 -24 -20 -25 -5 -1
-8 -5 -6 -9 1 -5 -4 -8 -11 -8 -8 0 -24 -11 -37 -25 -42 -44 -203 -162 -275
-201 -38 -20 -77 -43 -85 -50 -30 -24 -227 -83 -310 -93 -174 -19 -305 15
-388 103 -61 64 -76 110 -75 222 1 107 27 194 99 324 13 25 128 144 198 208
21 18 34 37 30 43 -4 7 -12 5 -23 -5 -9 -8 -42 -27 -72 -41 -73 -33 -223 -178
-268 -258 -19 -35 -40 -95 -51 -148 -11 -50 -22 -94 -25 -99 -9 -14 16 -112
41 -161 12 -25 46 -73 74 -107 44 -52 67 -69 163 -118 94 -48 125 -58 192 -66
125 -14 275 5 419 53 128 43 253 101 285 130 11 11 23 19 26 19 7 0 91 61 115
83 24 22 64 41 79 38 8 -1 18 3 23 11 7 9 8 3 4 -19 -3 -20 -1 -33 7 -36 9 -3
9 -8 1 -18 -5 -8 -9 -27 -9 -44 1 -16 -1 -34 -5 -40 -11 -14 -9 -69 2 -76 5
-3 6 -12 3 -21 -4 -10 -18 -14 -43 -13 -20 2 -48 -2 -61 -7 -21 -8 -29 -4 -56
25 -60 66 -121 62 -175 -10 -64 -86 -141 -168 -305 -323 -100 -95 -207 -223
-297 -356 -33 -49 -90 -125 -127 -169 -36 -44 -80 -100 -96 -124 -17 -24 -37
-54 -45 -66 -57 -83 -69 -103 -75 -122 -3 -13 -2 -23 3 -23 5 0 12 -9 15 -19
6 -26 62 -54 90 -45 30 9 177 157 177 177 0 10 7 17 15 17 9 0 19 8 22 17 4 9
31 41 60 71 30 29 51 57 48 61 -2 5 4 11 15 14 11 3 20 9 19 14 -4 25 3 44 19
50 9 3 47 38 84 77 37 39 68 67 68 61 0 -5 10 6 23 27 12 20 65 91 117 158 52
67 99 131 105 141 5 11 13 19 16 19 7 0 70 62 122 119 19 20 47 36 85 46 31 9
67 20 80 26 13 5 37 9 53 9 l31 0 -7 -85 c-6 -65 -4 -85 5 -85 8 0 9 -4 4 -12
-5 -7 -9 -24 -9 -38 0 -14 -4 -28 -10 -32 -6 -5 -5 -11 4 -17 8 -5 9 -11 3
-15 -6 -3 -10 -29 -8 -57 1 -28 -2 -53 -6 -55 -13 -8 -9 -82 5 -87 9 -4 9 -8
-1 -15 -8 -5 -12 -18 -11 -28 2 -11 0 -25 -5 -33 -5 -8 -4 -16 4 -21 8 -5 9
-17 2 -42 -6 -21 -6 -41 -1 -51 6 -10 5 -18 -1 -22 -14 -9 -12 -42 3 -48 9 -4
9 -6 -1 -6 -7 -1 -10 -5 -7 -11 3 -5 3 -10 -2 -10 -4 0 -9 -23 -10 -50 -2 -34
2 -50 10 -50 9 0 9 -2 0 -8 -6 -4 -14 -36 -17 -72 -3 -36 -9 -77 -12 -91 -3
-15 -1 -30 5 -33 8 -5 8 -13 0 -28 -6 -12 -11 -43 -11 -69 0 -27 -4 -49 -9
-49 -5 0 -9 -15 -9 -34 0 -19 -4 -38 -10 -41 -5 -3 -7 -23 -4 -45 4 -30 1 -43
-15 -59 -12 -12 -18 -27 -15 -36 4 -8 2 -21 -3 -28 -6 -6 -18 -34 -29 -62 -10
-27 -28 -64 -41 -81 -13 -17 -23 -35 -23 -41 0 -12 -46 -53 -79 -70 -12 -7
-33 -10 -45 -7 -11 2 -28 -1 -37 -8 -22 -17 -35 -58 -19 -58 7 0 14 9 17 19 6
24 29 34 51 22 21 -11 119 -17 128 -8 4 4 15 7 25 7 25 0 209 155 209 176 0 6
9 22 19 36 13 16 16 29 11 38 -6 10 -2 19 12 28 13 9 18 21 14 35 -3 11 2 33
10 48 7 15 14 43 14 62 0 18 3 37 7 41 4 3 8 13 9 20 1 7 5 23 8 34 4 11 2 23
-4 27 -15 9 -12 44 6 63 13 13 15 30 12 89 -3 40 -2 73 2 73 8 0 8 4 13 85 2
35 0 63 -6 67 -7 4 -6 12 2 22 8 9 10 16 6 16 -4 0 -2 6 4 14 12 14 8 76 -5
98 -3 5 0 15 6 23 7 8 10 20 7 27 -2 7 0 23 4 36 5 12 5 22 -1 22 -5 0 -8 9
-7 20 1 11 5 20 9 20 15 0 9 89 -7 97 -13 8 -13 12 3 33 10 16 17 44 17 75 1
28 5 56 9 64 5 7 4 17 -2 23 -6 6 -7 20 -1 37 5 14 8 58 6 97 l-2 72 40 -16
c22 -8 53 -24 68 -35 50 -34 218 -126 336 -182 126 -62 324 -117 476 -134 105
-12 288 -3 325 16 14 7 30 13 36 13 6 0 37 13 70 29 57 27 164 127 164 153 0
5 12 7 30 3 25 -6 30 -4 30 13 0 33 -27 33 -85 1 -80 -44 -210 -90 -280 -100
-129 -18 -325 5 -577 67 -148 37 -192 56 -466 203 -131 71 -170 96 -162 106 5
6 10 34 9 61 -2 76 8 226 16 258 5 19 4 27 -2 23 -16 -10 -25 36 -9 48 12 9
18 41 31 154 3 18 15 43 27 55 31 28 53 65 62 99 3 15 10 26 15 23 4 -3 14 10
21 29 8 19 17 35 22 35 10 0 30 38 33 66 1 12 10 30 19 39 9 9 14 20 12 24 -3
4 6 20 20 37 14 16 28 41 31 56 3 15 14 35 24 44 11 9 19 28 19 41 0 13 7 26
15 29 8 4 15 17 15 29 0 13 5 27 10 30 6 3 10 15 10 26 0 10 5 19 10 19 6 0
10 13 10 28 0 15 5 33 10 38 6 6 13 24 16 40 3 16 9 31 13 34 14 9 52 123 46
138 -3 8 2 20 11 26 10 8 16 27 16 49 0 20 4 39 8 42 4 3 6 14 3 25 -3 11 0
26 6 33 6 8 12 22 14 33 1 10 6 24 9 30 4 6 10 37 12 68 3 32 9 62 12 68 4 6
0 14 -7 19 -12 8 -12 11 1 19 11 7 12 12 3 18 -8 5 -9 13 -3 22 16 25 11 142
-8 192 -11 28 -37 66 -65 93 -26 25 -48 45 -50 45 -1 0 -16 4 -34 9 -17 5 -34
7 -36 4z m-3 -355 c-1 -29 -7 -73 -13 -98 -6 -25 -11 -61 -11 -80 -1 -19 -8
-53 -16 -75 -19 -51 -26 -76 -27 -97 -1 -10 -5 -18 -10 -18 -5 0 -7 -13 -4
-29 5 -21 2 -31 -9 -35 -9 -3 -14 -13 -11 -20 3 -8 -6 -38 -20 -66 -21 -43
-23 -54 -12 -61 11 -7 10 -9 -4 -9 -11 0 -20 -10 -23 -30 -4 -16 -11 -30 -16
-30 -5 0 -8 -6 -5 -12 2 -7 -7 -30 -20 -51 -14 -22 -22 -44 -20 -51 3 -7 -6
-22 -18 -34 -13 -13 -26 -33 -28 -45 -3 -12 -3 0 -1 27 2 27 8 53 14 56 7 5 9
21 5 44 -5 22 -3 36 3 36 13 0 26 42 36 120 1 14 6 33 10 43 5 9 6 30 4 46 -3
20 1 32 14 40 11 7 18 23 18 44 0 18 9 52 20 75 23 48 25 59 8 65 -9 3 -7 9 6
19 12 9 17 21 13 32 -4 10 1 21 13 28 11 7 20 21 20 31 0 10 7 29 16 42 13 20
14 28 4 40 -9 11 -9 15 -1 15 6 0 14 8 18 18 6 17 42 72 47 72 2 0 2 -24 0
-52z"/>
<path d="M1895 2684 c-140 -30 -190 -44 -193 -54 -2 -5 -8 -8 -12 -5 -5 3 -26
-3 -47 -14 -43 -23 -92 -43 -112 -47 -7 -1 -23 -12 -35 -23 -12 -12 -28 -21
-34 -21 -7 0 -12 -5 -12 -11 0 -6 -6 -9 -12 -6 -11 4 -47 -12 -98 -42 -8 -5
-63 -32 -121 -59 -64 -30 -112 -60 -122 -75 -9 -13 -28 -28 -44 -32 -15 -3
-37 -15 -48 -24 -11 -10 -32 -21 -46 -24 -14 -4 -36 -16 -49 -27 -13 -11 -30
-20 -38 -20 -9 0 -22 -6 -31 -14 -9 -8 -40 -36 -68 -62 -34 -30 -53 -55 -53
-69 0 -26 36 -82 66 -102 19 -12 25 -10 68 25 26 22 100 66 164 98 64 33 121
65 125 72 4 6 15 12 23 12 9 0 35 14 59 30 25 17 85 50 134 73 49 24 97 49
105 56 9 8 16 11 16 7 0 -11 64 26 78 45 7 10 19 16 26 13 8 -3 37 6 65 21 67
33 207 80 301 99 95 20 90 21 90 -13 0 -18 6 -31 18 -36 16 -6 16 -7 -1 -19
-9 -8 -16 -24 -15 -38 1 -13 -6 -41 -16 -62 -12 -26 -15 -41 -8 -48 7 -7 1
-19 -20 -38 -23 -21 -30 -36 -30 -64 0 -20 -4 -36 -9 -36 -5 0 -9 -6 -9 -14 0
-7 -8 -16 -19 -19 -13 -3 -22 -21 -31 -56 -7 -31 -26 -68 -47 -93 -18 -23 -32
-47 -29 -55 3 -8 -1 -16 -10 -20 -8 -3 -26 -27 -39 -53 -13 -26 -30 -54 -37
-62 -29 -30 -58 -78 -48 -78 20 0 9 -20 -19 -34 -16 -9 -32 -27 -35 -41 -4
-14 -11 -25 -16 -25 -6 0 -10 -9 -10 -20 0 -12 -7 -20 -16 -20 -19 0 -56 -44
-66 -78 -9 -30 15 -92 35 -92 8 0 22 -9 32 -20 23 -25 61 -23 103 7 17 13 32
21 32 17 0 -4 8 0 18 8 9 8 31 20 49 27 17 7 34 20 37 28 4 9 13 13 22 9 9 -3
35 2 57 12 23 10 54 22 68 25 24 6 27 4 33 -28 5 -23 2 -42 -9 -58 -8 -13 -12
-26 -9 -30 4 -4 0 -17 -9 -30 -8 -13 -17 -32 -19 -43 -2 -14 -20 -23 -73 -36
-38 -9 -88 -17 -110 -18 -22 0 -60 -5 -85 -11 -46 -11 -1255 -209 -1390 -228
-41 -6 -104 -13 -139 -16 -35 -2 -66 -7 -69 -9 -11 -12 43 -83 78 -104 51 -29
142 -29 334 -1 205 29 1169 194 1251 213 38 9 78 15 88 14 15 -3 14 -6 -8 -32
-14 -16 -25 -38 -25 -48 0 -10 -7 -21 -16 -25 -27 -10 -66 -54 -60 -69 3 -8 0
-14 -7 -14 -7 0 -21 -15 -32 -32 -10 -18 -24 -37 -32 -41 -7 -4 -13 -14 -13
-21 0 -8 -16 -31 -35 -52 -19 -22 -35 -45 -35 -51 0 -7 -10 -19 -22 -27 -13
-9 -34 -32 -47 -54 -13 -21 -36 -45 -51 -54 -15 -8 -33 -29 -41 -46 -7 -17
-24 -36 -36 -43 -12 -7 -25 -19 -28 -28 -3 -9 -15 -21 -27 -26 -14 -6 -23 -19
-23 -32 0 -13 -4 -23 -10 -23 -16 -2 -55 -42 -49 -51 3 -5 -3 -9 -13 -9 -10 0
-31 -14 -47 -30 -16 -17 -37 -30 -47 -30 -10 0 -24 -6 -31 -13 -8 -6 -29 -20
-48 -31 -19 -10 -58 -31 -87 -47 -29 -16 -87 -37 -130 -48 l-78 -19 -85 36
c-47 19 -96 44 -109 54 -17 13 -28 15 -35 8 -14 -14 40 -69 135 -135 104 -73
139 -86 224 -84 100 2 148 14 250 65 130 65 170 91 170 111 0 12 9 19 27 21
19 2 28 10 30 25 2 12 10 22 18 22 20 0 59 35 54 49 -2 6 10 19 26 28 17 10
35 28 40 40 5 13 9 19 9 14 1 -14 55 49 73 87 9 19 27 39 40 43 26 8 50 32 86
89 14 21 38 53 53 70 30 31 36 45 19 45 -5 0 -10 5 -10 10 0 6 3 9 8 9 27 -4
42 3 42 21 0 11 6 23 14 26 8 3 16 15 19 26 3 11 10 17 15 14 5 -3 15 6 22 19
7 14 17 25 22 25 4 0 8 13 8 29 0 23 6 31 30 40 20 7 30 17 30 30 0 12 4 21 8
21 5 0 15 12 23 27 8 16 22 37 32 48 10 11 16 28 13 37 -2 11 5 25 19 36 12
10 24 27 26 38 4 16 28 24 164 51 88 18 169 37 180 43 11 5 57 19 102 30 113
28 320 88 341 99 9 4 35 11 57 15 135 24 400 100 492 142 17 8 37 14 45 14 7
1 31 9 53 20 22 11 46 19 53 20 7 0 32 9 55 19 54 25 190 53 214 44 16 -6 16
-5 4 11 -17 20 -37 18 -200 -21 -57 -13 -120 -26 -140 -28 -47 -4 -134 -23
-373 -80 -109 -26 -267 -56 -303 -57 -11 0 -108 -22 -215 -49 -107 -26 -252
-58 -322 -72 -119 -23 -127 -23 -131 -6 -3 9 -1 21 4 26 15 15 18 96 4 124
-34 65 -165 149 -232 149 -23 0 -33 5 -33 16 0 11 -6 14 -20 9 -11 -3 -20 -2
-20 3 0 5 9 12 21 15 12 3 18 10 14 16 -3 6 1 14 10 17 9 4 14 13 11 21 -4 9
1 17 14 20 11 3 21 9 21 14 1 5 2 13 3 19 0 5 8 17 16 27 9 10 21 37 28 59 7
23 19 45 27 48 8 3 15 11 15 18 0 8 14 40 30 71 17 32 30 64 30 71 0 7 9 21
19 33 12 13 17 29 14 45 -4 20 0 26 17 31 16 4 20 10 15 30 -5 17 -2 26 10 31
9 3 13 11 10 16 -4 6 -2 17 5 25 6 7 13 38 16 67 2 29 7 63 9 76 3 12 1 22 -5
22 -6 0 -9 4 -6 8 6 10 -75 108 -105 130 -33 23 -123 65 -153 72 -17 3 -58 1
-91 -6z"/>
</g>
</svg>
