<?xml version="1.0" encoding="UTF-8" standalone="no"?>
<svg width="25px" height="25px" viewBox="0 0 25 25" version="1.1" xmlns="http://www.w3.org/2000/svg" xmlns:xlink="http://www.w3.org/1999/xlink">
    <!-- Generator: Sketch 3.8.3 (29802) - http://www.bohemiancoding.com/sketch -->
    <title>Group 3</title>
    <desc>Created with Sketch.</desc>
    <defs></defs>
    <g id="Page-1" stroke="none" stroke-width="1" fill="none" fill-rule="evenodd">
        <g id="Artboard-1" transform="translate(-205.000000, -46.000000)">
            <g id="Group-3" transform="translate(206.000000, 47.000000)">
                <circle id="Oval-1" stroke="#484848" fill="#FFFFFF" cx="11.5" cy="11.5" r="11.5"></circle>
                <path d="M5.946084,14.9233825 C6.09875142,15.2292849 6.30249716,15.4965948 6.55732123,15.738933 C6.79909194,15.9807037 7.09250851,16.1719637 7.41089671,16.3121453 C7.7292849,16.4648127 8.06072645,16.5794552 8.37911464,16.6810443 C8.70998865,16.7707151 9.06696935,16.846765 9.46197503,16.8853575 C9.86946652,16.9358683 10.2133939,16.9614075 10.5192963,16.9744608 C10.8246311,16.9869467 11.1560726,17 11.5255392,17 C11.9585698,17 12.3535755,16.9869467 12.7099886,16.9614075 C13.0669694,16.9489217 13.4744608,16.8978434 13.9330306,16.8087401 C14.3916005,16.7321226 14.7990919,16.6174801 15.1430193,16.4772985 C15.5,16.3371169 15.8314415,16.1333712 16.1498297,15.8660613 C16.4682179,15.5987514 16.723042,15.292849 16.9012486,14.9233825 C17.1940976,14.3371169 17.3342792,13.5601589 17.3342792,12.5794552 C17.3342792,11.4455165 17.015891,10.5028377 16.3660613,9.75141884 C16.4937571,9.36946652 16.5573212,8.96140749 16.5573212,8.553916 C16.5573212,8.00624291 16.4426788,7.48410897 16.1878547,7 C15.6912599,7 15.2326901,7.08910329 14.8501703,7.28036322 C14.4551646,7.45856981 14.0096481,7.75141884 13.5124858,8.14642452 C12.8887628,7.99375709 12.2258797,7.91713961 11.5255392,7.91713961 C10.761067,7.91713961 10.0221339,7.99375709 9.33427923,8.15891033 C8.8246311,7.76447219 8.37911464,7.47105562 7.98410897,7.28036322 C7.60215664,7.08910329 7.14358683,7 6.63393871,7 C6.39160045,7.48410897 6.276958,8.00624291 6.276958,8.553916 C6.276958,8.97446084 6.34052213,9.36946652 6.46821793,9.76390465 C5.8183882,10.515891 5.5,11.4585698 5.5,12.5794552 C5.5,13.5601589 5.65266742,14.3371169 5.946084,14.9233825 L5.946084,14.9233825 Z M7.57661748,12.3757094 C7.90749149,11.9807037 8.35357548,11.776958 8.91430193,11.776958 C9.11804767,11.776958 9.57661748,11.8280363 10.3024972,11.9296254 C10.6339387,11.9807037 11.0034052,12.0062429 11.4108967,12.0062429 C11.8183882,12.0062429 12.1878547,11.9807037 12.5317821,11.9296254 C13.2582293,11.8280363 13.7167991,11.776958 13.9074915,11.776958 C14.4807037,11.776958 14.9137344,11.9807037 15.2451759,12.3757094 C15.5766175,12.7707151 15.7417707,13.2548241 15.7417707,13.8280363 C15.7417707,14.2480136 15.6657208,14.6049943 15.5124858,14.9108967 C15.3598184,15.2162316 15.1685585,15.4710556 14.9392736,15.6367764 C14.7099886,15.814983 14.4171396,15.9551646 14.0732123,16.069807 C13.7292849,16.1719637 13.3978434,16.2480136 13.0794552,16.2735528 C12.761067,16.3121453 12.4046538,16.3246311 12.0096481,16.3246311 L10.8246311,16.3246311 C10.430193,16.3246311 10.0732123,16.3121453 9.75482406,16.2735528 C9.43643587,16.2480136 9.10499432,16.1719637 8.76106697,16.069807 C8.41713961,15.9551646 8.12429058,15.814983 7.89500568,15.6367764 C7.66572077,15.4710556 7.47446084,15.2162316 7.32179342,14.9108967 C7.16912599,14.6049943 7.09250851,14.2480136 7.09250851,13.8280363 C7.09250851,13.2548241 7.25822928,12.7707151 7.57661748,12.3757094 L7.57661748,12.3757094 Z M8.62088536,14.9489217 C8.76106697,15.1146425 8.93927355,15.1906924 9.14358683,15.1906924 C9.33427923,15.1906924 9.51248581,15.1146425 9.65266742,14.9489217 C9.79284904,14.7832009 9.89500568,14.6049943 9.95856981,14.4137344 C10.0221339,14.2099886 10.0476731,14.0187287 10.0476731,13.8280363 C10.0476731,13.6367764 10.0221339,13.4455165 9.95856981,13.2417707 C9.89500568,13.0505108 9.79284904,12.8723042 9.65266742,12.7065834 C9.51248581,12.5414302 9.33427923,12.4648127 9.14358683,12.4648127 C8.93927355,12.4648127 8.76106697,12.5414302 8.62088536,12.7065834 C8.48070375,12.8723042 8.37911464,13.0505108 8.31555051,13.2417707 C8.25141884,13.4455165 8.22644722,13.6367764 8.22644722,13.8280363 C8.22644722,14.0187287 8.25141884,14.2099886 8.31555051,14.4137344 C8.37911464,14.6049943 8.48070375,14.7832009 8.62088536,14.9489217 L8.62088536,14.9489217 Z M13.1685585,14.9489217 C13.3087401,15.1146425 13.4869467,15.1906924 13.6912599,15.1906924 C13.8819523,15.1906924 14.0607264,15.1146425 14.2003405,14.9489217 C14.3405221,14.7832009 14.4426788,14.6049943 14.5062429,14.4137344 C14.569807,14.2099886 14.5953462,14.0187287 14.5953462,13.8280363 C14.5953462,13.6367764 14.569807,13.4455165 14.5062429,13.2417707 C14.4426788,13.0505108 14.3405221,12.8723042 14.2003405,12.7065834 C14.0607264,12.5414302 13.8819523,12.4648127 13.6912599,12.4648127 C13.4869467,12.4648127 13.3087401,12.5414302 13.1685585,12.7065834 C13.0289444,12.8723042 12.9267877,13.0505108 12.8632236,13.2417707 C12.7990919,13.4455165 12.7741203,13.6367764 12.7741203,13.8280363 C12.7741203,14.0187287 12.7990919,14.2099886 12.8632236,14.4137344 C12.9267877,14.6049943 13.0289444,14.7832009 13.1685585,14.9489217 L13.1685585,14.9489217 Z" id="Fill-183" fill="#484848"></path>
            </g>
        </g>
    </g>
</svg>