<?xml version="1.0" encoding="UTF-8" standalone="no"?>
<svg width="25px" height="25px" viewBox="0 0 25 25" version="1.1" xmlns="http://www.w3.org/2000/svg" xmlns:xlink="http://www.w3.org/1999/xlink">
    <!-- Generator: Sketch 3.8.3 (29802) - http://www.bohemiancoding.com/sketch -->
    <title>Group 4</title>
    <desc>Created with Sketch.</desc>
    <defs></defs>
    <g id="Page-1" stroke="none" stroke-width="1" fill="none" fill-rule="evenodd">
        <g id="Artboard-1" transform="translate(-236.000000, -46.000000)">
            <g id="Group-4" transform="translate(237.000000, 47.000000)">
                <circle id="Oval-1" stroke="#484848" fill="#FFFFFF" cx="11.5" cy="11.5" r="11.5"></circle>
                <path d="M7.77329598,8.60191481 C7.94911059,8.77772942 8.19368438,8.86563673 8.48656367,8.86563673 L8.49657292,8.86563673 C8.80903552,8.86563673 9.05317413,8.77772942 9.2385628,8.60191481 C9.42438666,8.41609095 9.51229397,8.20110972 9.51229397,7.92781374 C9.51229397,7.66409182 9.41437741,7.43953653 9.2385628,7.26372192 C9.06274819,7.08790731 8.81860958,7 8.51572105,7 C8.21283251,7 7.9686939,7.08790731 7.78330523,7.26372192 C7.59748137,7.43953653 7.5,7.66409182 7.5,7.92781374 C7.5,8.20110972 7.58790731,8.41609095 7.77329598,8.60191481 L7.77329598,8.60191481 Z M7.60749062,15 L9.40480335,15 L9.40480335,9.6080618 L7.60749062,9.6080618 L7.60749062,15 Z M12.1886798,15 L12.1886798,11.9911331 C12.1886798,11.8057444 12.2082631,11.6590872 12.2474297,11.5515966 C12.3253277,11.3662079 12.4428276,11.2099766 12.5990589,11.0829027 C12.745281,10.9558288 12.9406789,10.8970788 13.1752434,10.8970788 C13.487706,10.8970788 13.7122613,11.0045694 13.8589186,11.2195507 C14.0055758,11.4345319 14.0834739,11.7374204 14.0834739,12.118207 L14.0834739,15 L15.8807866,15 L15.8807866,11.9132351 C15.8807866,11.1120601 15.6953979,10.5067182 15.3146113,10.096339 C14.9333895,9.68595985 14.4351031,9.48098787 13.8101779,9.48098787 C13.5856226,9.48098787 13.3706414,9.51014524 13.1848175,9.56889517 C12.9994288,9.61763586 12.8431975,9.6959691 12.7065495,9.80302453 C12.5794756,9.90094109 12.481559,9.99842246 12.403661,10.0867649 C12.3253277,10.1742371 12.2474297,10.2721536 12.1786705,10.3892183 L12.1886798,10.3892183 L12.1886798,9.6080618 L10.391367,9.6080618 L10.4009411,9.87178371 L10.4009411,11.4832726 C10.4009411,12.381929 10.4009411,13.5543165 10.391367,15 L12.1886798,15 L12.1886798,15 Z" id="Fill-54" fill="#484848"></path>
            </g>
        </g>
    </g>
</svg>